<?xml version="1.0" encoding="UTF-8" standalone="no"?>
<svg
   xmlns:dc="http://purl.org/dc/elements/1.1/"
   xmlns:cc="http://creativecommons.org/ns#"
   xmlns:rdf="http://www.w3.org/1999/02/22-rdf-syntax-ns#"
   xmlns:svg="http://www.w3.org/2000/svg"
   xmlns="http://www.w3.org/2000/svg"
   xmlns:sodipodi="http://sodipodi.sourceforge.net/DTD/sodipodi-0.dtd"
   xmlns:inkscape="http://www.inkscape.org/namespaces/inkscape"
   sodipodi:docname="search_button_icon.svg"
   inkscape:version="1.0beta1 (32d4812, 2019-09-19)"
   xml:space="preserve"
   enable-background="new 0 0 400 400"
   viewBox="0 0 187.5 187.5"
   height="150pt"
   width="150pt"
   y="0px"
   x="0px"
   id="Layer_1"
   version="1.1">
  <style></style>
  <metadata
     id="metadata3365">
    <rdf:RDF>
      <cc:Work
         rdf:about="">
        <dc:format>image/svg+xml</dc:format>
        <dc:type
           rdf:resource="http://purl.org/dc/dcmitype/StillImage" />
        <dc:title></dc:title>
      </cc:Work>
    </rdf:RDF>
  </metadata>
  <defs
     id="defs3363" />
  <sodipodi:namedview
     inkscape:document-rotation="0"
     inkscape:current-layer="g3466"
     inkscape:window-maximized="1"
     inkscape:window-y="23"
     inkscape:window-x="1280"
     inkscape:cy="103.61786"
     inkscape:cx="24.957565"
     inkscape:zoom="4.5534666"
     units="pt"
     showgrid="false"
     id="namedview3361"
     inkscape:window-height="959"
     inkscape:window-width="1680"
     inkscape:pageshadow="2"
     inkscape:pageopacity="0.54901961"
     guidetolerance="10"
     gridtolerance="10"
     objecttolerance="10"
     borderopacity="1"
     bordercolor="#666666"
     pagecolor="#ffffff" />
  <g
     transform="matrix(0.49359682,0,0,0.49359682,-4.9692262,-31.093883)"
     id="g3367">
    <g
       id="g3337">
      <g
         transform="matrix(0.85920373,0,0,0.85920373,3.2002343,9.6539742)"
         id="g3409">
        <g
           transform="translate(0,47.158073)"
           id="g3466">
          <path
             transform="matrix(2.2105624,0,0,2.2105624,7.992452,14.923271)"
             d="M 123.39062 27.591797 C 121.93801 27.615975 120.47188 27.714169 118.99805 27.888672 C 102.14859 29.883036 88.738042 41.372795 83.472656 56.373047 C 86.379779 55.815079 89.377382 55.513672 92.447266 55.513672 C 118.60079 55.513672 139.80273 76.714562 139.80273 102.86719 C 139.80273 105.59023 139.56048 108.25423 139.11914 110.85156 C 157.25362 104.08132 169.12432 85.610129 166.75 65.53125 C 164.13118 43.424177 145.17981 27.22912 123.39062 27.591797 z "
             style="fill:#39a9dc;stroke-width:0.452374"
             id="path3339" />
          <path
             style="fill:#bbcc00"
             inkscape:connector-curvature="0"
             d="m 25.578,263.398 c -2.477,-2.88 -3.51,-6.883 -2.411,-10.789 1.759,-6.225 8.267,-9.828 14.545,-8.062 5.403,1.524 8.866,6.552 8.591,11.895 l 0.098,-0.011 c 0,0 -3.488,15.4 9.714,26.207 10e-4,0 -22.863,-9.087 -30.537,-19.24"
             id="path3341" />
          <path
             transform="matrix(2.2105624,0,0,2.2105624,7.992452,14.923271)"
             d="M 124.43555 8.0039062 C 98.215824 7.6682794 74.008781 24.473918 65.806641 50.660156 C 64.273234 55.561576 63.372748 60.625603 63.101562 65.716797 C 64.33512 64.740996 65.616702 63.82575 66.945312 62.974609 C 67.342348 59.176372 68.111878 55.40929 69.259766 51.740234 C 78.401783 22.553091 108.68363 5.7565564 138.20508 13.503906 C 138.85785 13.673546 139.56713 13.878083 140.4375 14.144531 L 141.49609 10.683594 C 140.57551 10.402217 139.82092 10.18576 139.12109 10.003906 C 134.21652 8.7168327 129.29105 8.0660594 124.43555 8.0039062 z "
             style="fill:#002052;stroke-width:0.452374"
             id="path3343" />
          <path
             style="fill:#39a9dc"
             inkscape:connector-curvature="0"
             d="m 177.522,135.046 -4.765,-1.515 c 0.535,-1.685 1.032,-3.153 1.519,-4.489 9.843,-27.105 29.233,-49.351 54.6,-62.639 25.371,-13.29 54.611,-16.512 82.334,-9.073 1.909,0.513 3.832,1.081 5.715,1.686 1.95,0.637 3.844,1.306 5.643,1.992 16.934,6.452 31.781,16.518 44.13,29.916 l -3.677,3.389 C 351.202,81.488 336.992,71.855 320.787,65.68 c -1.724,-0.657 -3.542,-1.299 -5.404,-1.907 -1.796,-0.577 -3.641,-1.122 -5.471,-1.614 -55.079,-14.779 -111.371,14.708 -130.938,68.592 -0.462,1.273 -0.937,2.677 -1.452,4.295 z"
             id="path3345" />
          <path
             transform="matrix(2.2105624,0,0,2.2105624,7.992452,14.923271)"
             d="M 68.416016 44.314453 C 67.351463 44.331996 66.277336 44.403596 65.197266 44.53125 C 47.914333 46.575526 35.557882 62.24696 37.603516 79.53125 C 38.40053 86.25518 41.266155 92.227555 45.480469 96.902344 C 48.415061 73.567261 68.31624 55.513672 92.447266 55.513672 C 92.633401 55.513672 92.816325 55.525202 93.001953 55.527344 C 87.052538 48.476883 78.120082 44.154538 68.416016 44.314453 z "
             style="fill:#002052;stroke-width:0.452374"
             id="path3349" />
          <path
             transform="matrix(2.2105624,0,0,2.2105624,7.992452,14.923271)"
             d="M 91.603516 48.115234 C 89.753536 48.146104 87.886748 48.269902 86.009766 48.492188 C 55.979398 52.048296 34.514347 79.268748 38.072266 109.30273 C 41.622946 139.33582 68.854254 160.79513 98.882812 157.24219 C 128.91499 153.68291 150.37866 126.46141 146.82617 96.429688 C 143.49232 68.271553 119.35322 47.652195 91.603516 48.115234 z M 92.447266 55.511719 C 118.60079 55.511719 139.80273 76.712613 139.80273 102.86523 C 139.80273 129.01921 118.60079 150.2207 92.447266 150.2207 C 66.294644 150.2207 45.09375 129.01876 45.09375 102.86523 C 45.09375 76.712613 66.294644 55.511719 92.447266 55.511719 z "
             style="fill:#002052;stroke-width:0.452374"
             id="path3351" />
          <g
             transform="translate(8.9014542,0)"
             id="g3355">
            <path
               style="fill:#bbcc00"
               inkscape:connector-curvature="0"
               d="m 206.285,163.04 c -5.327,-1.807 -10.925,-2.607 -16.675,-2.37 -5.68,0.222 -11.308,1.684 -16.736,4.319 -5.444,2.64 -10.045,6.16 -13.697,10.451 -3.691,4.363 -6.471,9.227 -8.244,14.467 -1.786,5.224 -2.54,10.767 -2.26,16.476 0.265,5.61 1.759,11.195 4.443,16.608 2.446,4.645 5.531,8.723 9.16,12.123 3.673,3.435 7.777,6.214 12.253,8.279 4.45,2.055 9.207,3.322 14.123,3.79 4.952,0.443 9.887,0.069 14.673,-1.15 l 8.148,-2.063 -3.746,7.443 c -0.67,1.331 -0.993,2.872 -0.967,4.584 0.038,1.812 0.387,3.466 1.108,5.066 l 28.502,56.705 c 1.314,2.795 3.325,4.568 6.313,5.587 2.988,1.017 5.844,0.838 8.705,-0.558 l 0.581,-0.269 c 2.819,-1.372 4.697,-3.491 5.714,-6.45 0.986,-2.935 0.781,-5.66 -0.647,-8.344 l -0.038,-0.086 -28.238,-56.828 c -0.803,-1.621 -1.843,-2.885 -3.174,-3.9 -1.334,-1.008 -2.807,-1.68 -4.516,-2.026 l -8.143,-1.7 6.551,-5.017 c 3.882,-2.98 7.207,-6.598 9.866,-10.763 2.625,-4.102 4.509,-8.576 5.588,-13.337 1.053,-4.753 1.368,-9.716 0.923,-14.75 -0.434,-4.937 -1.863,-9.748 -4.255,-14.316 l -0.041,-0.061 c -2.692,-5.419 -6.268,-10.009 -10.635,-13.629 -4.412,-3.695 -9.329,-6.471 -14.639,-8.281 z m 10.902,12.498 c 3.787,3.249 6.928,7.214 9.313,11.779 l 0.076,0.129 c 2.191,4.628 3.479,9.499 3.81,14.476 0.302,4.96 -0.332,9.785 -1.879,14.358 -1.558,4.55 -4.003,8.772 -7.246,12.512 -3.3,3.749 -7.285,6.831 -11.865,9.147 l -0.126,0.068 c -4.713,2.177 -9.62,3.375 -14.597,3.566 -4.931,0.204 -9.78,-0.482 -14.395,-2.051 -4.614,-1.568 -8.877,-3.975 -12.681,-7.148 -3.836,-3.212 -6.998,-7.156 -9.386,-11.733 l -0.077,-0.129 c -2.22,-4.666 -3.473,-9.548 -3.701,-14.493 -0.223,-4.913 0.436,-9.711 1.981,-14.256 1.561,-4.559 3.938,-8.766 7.12,-12.504 3.209,-3.788 7.169,-6.901 11.766,-9.248 l 0.138,-0.053 c 4.652,-2.157 9.551,-3.379 14.564,-3.664 4.981,-0.28 9.874,0.376 14.513,1.957 4.642,1.574 8.913,4.024 12.672,7.287 z"
               id="path3357" />
            <path
               style="fill:#bbcc00"
               inkscape:connector-curvature="0"
               d="m 169.629,183.994 c 0,0 16.72,-6.708 33.853,6.103 20.088,15.018 15.447,30.755 15.447,30.755 10.172,-13.615 7.387,-32.911 -6.229,-43.082 -13.613,-10.18 -32.899,-7.391 -43.071,6.224 z"
               id="path3359" />
          </g>
        </g>
      </g>
    </g>
  </g>
</svg>
